<svg width="310" height="208" viewBox="0 0 310 208" fill="none" xmlns="http://www.w3.org/2000/svg">
<path d="M264.655 29.4778H212.411V172.817H264.655V29.4778Z" fill="#BCD7EE"/>
<path d="M260.271 35.7651H216.794V172.817H260.271V35.7651Z" fill="#356FA1"/>
<path d="M310 35.7651H260.271V172.817H310V35.7651Z" fill="#86B8ED"/>
<path d="M303.33 91.9172H299.62C298.761 91.9172 298.065 92.6411 298.065 93.5345V110.945C298.065 111.838 298.761 112.562 299.62 112.562H303.33C304.189 112.562 304.885 111.838 304.885 110.945V93.5345C304.885 92.6411 304.189 91.9172 303.33 91.9172Z" fill="#73A5C6"/>
<path d="M301.446 101.147C302.685 101.147 303.689 100.102 303.689 98.8139C303.689 97.5255 302.685 96.4811 301.446 96.4811C300.206 96.4811 299.202 97.5255 299.202 98.8139C299.202 100.102 300.206 101.147 301.446 101.147Z" fill="#356FA1"/>
<path d="M301.475 105.239C300.886 105.239 300.409 105.735 300.409 106.347V109.052C300.409 109.664 300.886 110.16 301.475 110.16C302.063 110.16 302.54 109.664 302.54 109.052V106.347C302.541 105.735 302.064 105.239 301.475 105.239Z" fill="white"/>
<path d="M300.622 97.7909C297.875 97.7909 295.128 97.7909 292.382 97.7909C291.26 97.7909 291.259 99.6029 292.382 99.6029C295.129 99.6029 297.875 99.6029 300.622 99.6029C301.744 99.6029 301.746 97.7909 300.622 97.7909Z" fill="#356FA1"/>
<path d="M273.059 172.817H204.007V187.183H273.059V172.817Z" fill="#73A5C6"/>
<path d="M276.56 35.7651C276.56 35.7651 271.034 100.214 288.205 119.433C298.066 130.47 310.001 132.557 310.001 132.557V172.817H260.271V35.7651H276.56Z" fill="#73ACE0"/>
<path d="M232.455 35.7651L247.138 172.817H216.794V35.7651H232.455Z" fill="#296089"/>
<path d="M59.5765 190.754C92.4796 190.754 119.153 188.871 119.153 186.549C119.153 184.226 92.4796 182.343 59.5765 182.343C26.6733 182.343 0 184.226 0 186.549C0 188.871 26.6733 190.754 59.5765 190.754Z" fill="#CCE2F2"/>
<path d="M66.653 170.643C65.6241 175.635 64.5956 180.627 63.5667 185.619C63.3739 186.556 64.7578 186.956 64.9516 186.016C65.9805 181.024 67.009 176.032 68.0379 171.04C68.2312 170.103 66.8473 169.702 66.653 170.643Z" fill="#25618E"/>
<path d="M61.2405 170.643C60.2116 175.635 59.1827 180.627 58.1542 185.619C57.9609 186.556 59.3453 186.956 59.5391 186.016C60.568 181.024 61.5969 176.032 62.6254 171.04C62.8182 170.103 61.4343 169.702 61.2405 170.643Z" fill="#25618E"/>
<path d="M65.6073 179.772H60.3898C60.1254 179.772 59.9111 179.549 59.9111 179.274C59.9111 178.999 60.1254 178.776 60.3898 178.776H65.6073C65.8718 178.776 66.086 178.999 66.086 179.274C66.086 179.549 65.8713 179.772 65.6073 179.772Z" fill="#25618E"/>
<path d="M86.1349 131.37C82.622 131.564 79.1188 133.314 79.1188 133.314C79.1188 133.314 76.1668 124.259 78.4645 123.845C80.7575 123.426 85.6771 123.845 85.6771 123.845C85.6771 123.845 82.5281 127.053 86.1349 131.37Z" fill="#BA0F38"/>
<path d="M100.802 187.375C109.04 187.375 115.719 180.431 115.719 171.865C115.719 163.299 109.04 156.355 100.802 156.355C92.563 156.355 85.8843 163.299 85.8843 171.865C85.8843 180.431 92.563 187.375 100.802 187.375Z" fill="#181A44"/>
<path d="M100.801 183.63C107.051 183.63 112.118 178.363 112.118 171.865C112.118 165.367 107.051 160.099 100.801 160.099C94.5516 160.099 89.4851 165.367 89.4851 171.865C89.4851 178.363 94.5516 183.63 100.801 183.63Z" fill="#25618E"/>
<path d="M100.801 181.317C105.822 181.317 109.893 177.085 109.893 171.865C109.893 166.644 105.822 162.412 100.801 162.412C95.7802 162.412 91.7097 166.644 91.7097 171.865C91.7097 177.085 95.7802 181.317 100.801 181.317Z" fill="#DBDBDB"/>
<path d="M100.8 183.09C100.404 183.09 100.082 182.755 100.082 182.343V161.386C100.082 160.974 100.404 160.64 100.8 160.64C101.197 160.64 101.518 160.974 101.518 161.386V182.343C101.518 182.755 101.197 183.09 100.8 183.09Z" fill="#25618E"/>
<path d="M110.879 172.611H90.7222C90.3253 172.611 90.0042 172.277 90.0042 171.865C90.0042 171.453 90.3257 171.118 90.7222 171.118H110.879C111.275 171.118 111.597 171.453 111.597 171.865C111.597 172.277 111.275 172.611 110.879 172.611Z" fill="#25618E"/>
<path d="M93.6746 180.02C93.491 180.02 93.307 179.947 93.1671 179.802C92.8864 179.51 92.8864 179.038 93.1671 178.746L107.42 163.927C107.7 163.635 108.155 163.635 108.435 163.927C108.716 164.219 108.716 164.691 108.435 164.983L94.1825 179.802C94.0417 179.947 93.8581 180.02 93.6746 180.02Z" fill="#25618E"/>
<path d="M107.926 180.02C107.743 180.02 107.559 179.947 107.419 179.802L93.1661 164.983C92.8854 164.692 92.8854 164.219 93.1661 163.927C93.4463 163.635 93.9008 163.635 94.1815 163.927L108.434 178.746C108.715 179.038 108.715 179.51 108.434 179.802C108.294 179.947 108.11 180.02 107.926 180.02Z" fill="#25618E"/>
<path d="M100.801 175.585C102.777 175.585 104.38 173.919 104.38 171.865C104.38 169.81 102.777 168.144 100.801 168.144C98.8248 168.144 97.2227 169.81 97.2227 171.865C97.2227 173.919 98.8248 175.585 100.801 175.585Z" fill="#25618E"/>
<path d="M100.802 174.496C102.199 174.496 103.332 173.318 103.332 171.865C103.332 170.412 102.199 169.234 100.802 169.234C99.4042 169.234 98.2712 170.412 98.2712 171.865C98.2712 173.318 99.4042 174.496 100.802 174.496Z" fill="#181A44"/>
<path d="M28.4768 187.375C36.7155 187.375 43.3943 180.431 43.3943 171.865C43.3943 163.299 36.7155 156.355 28.4768 156.355C20.2381 156.355 13.5593 163.299 13.5593 171.865C13.5593 180.431 20.2381 187.375 28.4768 187.375Z" fill="#181A44"/>
<path d="M28.4762 183.63C34.726 183.63 39.7924 178.363 39.7924 171.865C39.7924 165.367 34.726 160.099 28.4762 160.099C22.2264 160.099 17.1599 165.367 17.1599 171.865C17.1599 178.363 22.2264 183.63 28.4762 183.63Z" fill="#25618E"/>
<path d="M28.4763 181.317C33.4975 181.317 37.5679 177.085 37.5679 171.865C37.5679 166.644 33.4975 162.412 28.4763 162.412C23.4552 162.412 19.3848 166.644 19.3848 171.865C19.3848 177.085 23.4552 181.317 28.4763 181.317Z" fill="#DBDBDB"/>
<path d="M28.4763 183.09C28.0794 183.09 27.7583 182.755 27.7583 182.343V161.386C27.7583 160.974 28.0794 160.64 28.4763 160.64C28.8732 160.64 29.1943 160.974 29.1943 161.386V182.343C29.1943 182.755 28.8732 183.09 28.4763 183.09Z" fill="#25618E"/>
<path d="M38.5546 172.611H18.3982C18.0013 172.611 17.6802 172.277 17.6802 171.865C17.6802 171.453 18.0018 171.118 18.3982 171.118H38.5546C38.951 171.118 39.2726 171.453 39.2726 171.865C39.2726 172.277 38.951 172.611 38.5546 172.611Z" fill="#25618E"/>
<path d="M21.351 180.021C21.1674 180.021 20.9834 179.948 20.8435 179.802C20.5632 179.51 20.5632 179.038 20.8435 178.746L35.0964 163.927C35.3771 163.635 35.8311 163.635 36.1118 163.927C36.3925 164.219 36.3925 164.691 36.1118 164.983L21.8594 179.802C21.7181 179.948 21.5345 180.021 21.351 180.021Z" fill="#25618E"/>
<path d="M35.6029 180.021C35.4193 180.021 35.2353 179.948 35.0954 179.802L20.8425 164.983C20.5623 164.692 20.5623 164.219 20.8425 163.927C21.1232 163.635 21.5772 163.635 21.8579 163.927L36.1104 178.746C36.3911 179.038 36.3911 179.51 36.1104 179.802C35.9705 179.948 35.7869 180.021 35.6029 180.021Z" fill="#25618E"/>
<path d="M28.4761 175.585C30.4525 175.585 32.0546 173.919 32.0546 171.865C32.0546 169.81 30.4525 168.144 28.4761 168.144C26.4998 168.144 24.8977 169.81 24.8977 171.865C24.8977 173.919 26.4998 175.585 28.4761 175.585Z" fill="#25618E"/>
<path d="M28.476 174.496C29.8736 174.496 31.0065 173.318 31.0065 171.865C31.0065 170.412 29.8736 169.234 28.476 169.234C27.0785 169.234 25.9456 170.412 25.9456 171.865C25.9456 173.318 27.0785 174.496 28.476 174.496Z" fill="#181A44"/>
<path d="M28.4764 172.86C27.9475 172.86 27.519 172.415 27.519 171.865V158.655C27.519 158.105 27.9475 157.659 28.4764 157.659C29.0053 157.659 29.4337 158.105 29.4337 158.655V171.865C29.4337 172.415 29.0053 172.86 28.4764 172.86Z" fill="#E6133E"/>
<path d="M100.802 172.86C100.468 172.86 100.143 172.678 99.9672 172.353L91.5671 156.843C91.3078 156.364 91.4709 155.757 91.9315 155.487C92.392 155.219 92.9762 155.387 93.2355 155.867L101.636 171.377C101.895 171.856 101.732 172.463 101.272 172.733C101.123 172.819 100.961 172.86 100.802 172.86Z" fill="#E6133E"/>
<path d="M92.403 119.814C92.403 121.334 92.1028 124.362 91.178 126.01C90.9466 126.424 90.6761 126.751 90.3615 126.945C88.9938 127.79 78.3909 124.956 74.7697 123.748C74.5285 123.667 74.1841 119.364 75.0797 118.177C75.6555 117.415 84.9641 112.576 89.7071 112.525C89.8252 112.525 90.2485 112.939 90.7254 113.701C91.4931 114.924 92.403 117.052 92.403 119.814Z" fill="#E6133E"/>
<path d="M86.4456 163.139L92.1915 167.005C92.1915 167.005 95.5144 162.113 100.802 162.827C101.935 162.98 102.921 163.26 103.771 163.604C107.555 165.136 111.777 164.978 115.347 162.966L115.719 162.756C115.719 162.756 110.641 154.131 100.802 154.643C90.9614 155.154 86.4456 163.139 86.4456 163.139Z" fill="#E6133E"/>
<path d="M100.801 162.411C100.801 162.411 100.801 164.958 98.4252 167.43C95.0154 170.975 91.8469 170.831 87.6452 170.831C77.805 170.831 9.41626 170.831 9.41626 170.831C9.41626 170.831 9.70161 148.108 22.8233 144.696L52.0583 144.568C52.0583 144.568 41.5637 166.58 53.0421 166.657C64.5206 166.739 81.0864 166.657 81.0864 166.657C81.0864 166.657 93.8787 164.35 77.1506 140.819C77.1506 140.819 73.1507 136.808 79.1188 133.314C79.1188 133.314 82.6219 131.564 86.1348 131.37C86.3858 131.672 86.6711 131.979 86.9909 132.291C91.9105 137.069 100.959 153.357 100.801 162.411Z" fill="#E6133E"/>
<path d="M52.0583 144.569C52.0583 144.569 54.9266 143.444 55.6474 140.897C56.1233 139.216 54.8495 137.542 53.1644 137.542H22.9251C20.113 137.542 15.685 142.621 22.8224 144.697L52.0583 144.569Z" fill="#181A44"/>
<path d="M10.7637 156.354H7.56592V173.539H10.7637V156.354Z" fill="#181A44"/>
<path d="M29.8294 111.507H4.49121V137.55H29.8294V111.507Z" fill="#E6133E"/>
<path d="M24.5825 113.763H9.73843C8.33493 113.763 7.19727 114.946 7.19727 116.405V130.607C7.19727 132.066 8.33493 133.249 9.73843 133.249H24.5825C25.986 133.249 27.1236 132.066 27.1236 130.607V116.405C27.1236 114.946 25.986 113.763 24.5825 113.763Z" fill="white"/>
<path d="M23.7051 114.914H10.6155C9.37787 114.914 8.37451 115.958 8.37451 117.244V129.767C8.37451 131.054 9.37787 132.097 10.6155 132.097H23.7051C24.9427 132.097 25.9461 131.054 25.9461 129.767V117.244C25.9461 115.957 24.9427 114.914 23.7051 114.914Z" fill="#356FA1"/>
<path d="M30.8996 106.355H3.42321C2.71635 106.355 2.1438 106.95 2.1438 107.685V110.177C2.1438 110.912 2.71681 111.507 3.42321 111.507H30.8996C31.6065 111.507 32.179 110.912 32.179 110.177V107.685C32.179 106.95 31.606 106.355 30.8996 106.355Z" fill="#356FA1"/>
<path d="M21.7127 153.326C25.5765 151.075 31.6478 151.579 35.6672 153.229C40.368 155.159 42.4728 159.97 42.9152 164.925C42.9998 165.873 44.4367 165.882 44.3512 164.925C43.8749 159.587 41.6962 154.405 36.7542 152.095C32.2519 149.99 25.3897 149.472 20.9877 152.037C20.1814 152.506 20.9045 153.797 21.7127 153.326Z" fill="#BA0F38"/>
<path d="M20.1124 165.705C25.0325 165.705 29.9526 165.705 34.8728 165.705C35.7967 165.705 35.7985 164.212 34.8728 164.212C29.9526 164.212 25.0325 164.212 20.1124 164.212C19.1885 164.212 19.1871 165.705 20.1124 165.705Z" fill="#BA0F38"/>
<path d="M20.1124 162.133C25.0325 162.133 29.9526 162.133 34.8728 162.133C35.7967 162.133 35.7985 160.64 34.8728 160.64C29.9526 160.64 25.0325 160.64 20.1124 160.64C19.1885 160.64 19.1871 162.133 20.1124 162.133Z" fill="#BA0F38"/>
<path d="M81.6494 138.071C85.0257 141.953 87.9335 146.238 90.2191 150.907C92.6287 155.829 94.3269 161.794 90.8525 166.654C90.3009 167.426 91.5468 168.171 92.0924 167.408C95.274 162.958 94.5504 157.346 92.5437 152.532C90.1638 146.823 86.6667 141.617 82.6649 137.015C82.044 136.301 81.0309 137.359 81.6494 138.071Z" fill="#BA0F38"/>
<path d="M81.1332 123.35C82.7951 123.35 84.1423 121.949 84.1423 120.221C84.1423 118.493 82.7951 117.093 81.1332 117.093C79.4713 117.093 78.124 118.493 78.124 120.221C78.124 121.949 79.4713 123.35 81.1332 123.35Z" fill="#181A44"/>
<path d="M74.4978 128.096C74.2524 128.096 74.007 127.998 73.8202 127.804C73.4465 127.414 73.4475 126.785 73.822 126.396L80.457 119.516C80.8311 119.128 81.4376 119.129 81.8108 119.518C82.1844 119.908 82.1835 120.537 81.8089 120.926L75.1739 127.806C74.9871 127.999 74.7422 128.096 74.4978 128.096Z" fill="#25618E"/>
<path d="M74.4983 128.345C74.1916 128.345 73.8848 128.223 73.6511 127.98C73.1845 127.493 73.1854 126.706 73.6534 126.22L76.9711 122.78C77.4386 122.295 78.1966 122.297 78.6632 122.783C79.1298 123.27 79.1289 124.057 78.6609 124.542L75.3432 127.982C75.1099 128.224 74.8041 128.345 74.4983 128.345Z" fill="#181A44"/>
<path d="M92.4028 119.814C92.4028 121.334 92.1026 124.362 91.1778 126.01C86.8381 120.311 90.7251 113.702 90.7251 113.702C91.4929 114.924 92.4028 117.052 92.4028 119.814Z" fill="#DBDBDB"/>
<path d="M86.4744 115.275C85.2828 118.554 85.5547 122.043 87.1711 125.109C87.6153 125.952 88.8557 125.2 88.411 124.356C86.9666 121.614 86.8002 118.586 87.8593 115.672C88.186 114.773 86.7983 114.384 86.4744 115.275Z" fill="#BA0F38"/>
<path d="M55.1102 142.962H15.6846V144.698H55.1102V142.962Z" fill="#356FA1"/>
<path d="M23.1868 144.576C23.0335 144.576 22.8792 144.526 22.7481 144.421L13.6463 137.11C13.4033 136.915 13.3066 136.581 13.4056 136.278C13.5046 135.976 13.7778 135.773 14.085 135.773H20.8501C21.0105 135.773 21.1662 135.829 21.293 135.932L30.2721 143.242C30.5844 143.496 30.6393 143.965 30.3948 144.29C30.1504 144.614 29.6987 144.671 29.3868 144.417L20.6029 137.267H16.1898L23.6265 143.239C23.9402 143.491 23.9982 143.96 23.7557 144.286C23.6144 144.476 23.402 144.576 23.1868 144.576Z" fill="#25618E"/>
<path d="M31.0069 135.544H2.14282V137.55H31.0069V135.544Z" fill="#356FA1"/>
<path d="M80.0663 121.136C78.6665 118.509 76.6203 116.382 74.093 114.927C73.5535 114.617 73.0702 115.476 73.6097 115.787C76.0031 117.165 77.9136 119.15 79.2395 121.639C79.5383 122.199 80.3651 121.698 80.0663 121.136Z" fill="#25618E"/>
<path d="M72.4613 119.392C73.9179 119.392 75.0987 117.322 75.0987 114.768C75.0987 112.215 73.9179 110.145 72.4613 110.145C71.0048 110.145 69.824 112.215 69.824 114.768C69.824 117.322 71.0048 119.392 72.4613 119.392Z" fill="#25618E"/>
<path d="M21.5525 123.526C21.4442 122.83 21.329 122.091 21.2165 121.266C21.1933 121.095 21.012 119.802 20.7448 119.087C20.8577 118.694 20.8717 118.177 20.7625 117.775C20.6212 117.255 20.3224 117.015 20.0984 116.905C19.3734 116.548 18.5829 116.603 17.9764 116.691C16.1695 116.948 14.4328 117.701 12.9387 118.881C11.7392 119.828 10.6438 120.86 10.7498 121.981C10.787 122.375 10.9993 122.93 11.7959 123.334C11.9325 123.405 12.0664 123.452 12.1839 123.494C12.2639 123.522 12.3438 123.549 12.4056 123.579C12.4986 123.639 12.7333 123.918 12.8592 124.069C12.9814 124.214 13.0925 124.344 13.1701 124.419C14.3338 125.561 15.2879 126.341 16.4962 127.33L16.6245 127.435C18.0851 128.631 19.2563 129.26 20.209 129.719C20.4553 129.837 20.7731 129.965 21.0924 129.965C21.283 129.965 21.474 129.92 21.6496 129.799C21.9666 129.581 22.1199 129.204 22.1055 128.677C22.0553 126.751 21.8225 125.256 21.5525 123.526ZM20.6965 128.623C19.8046 128.194 18.7088 127.605 17.3425 126.487L17.2138 126.382C15.9817 125.374 15.0922 124.646 13.9643 123.539C13.9049 123.481 13.824 123.382 13.7334 123.274C13.4197 122.901 13.178 122.627 12.9215 122.498C12.8034 122.439 12.6812 122.394 12.5581 122.351C12.4753 122.321 12.3912 122.294 12.3085 122.251C12.1649 122.178 11.9209 122.03 11.9046 121.862C11.8786 121.587 12.1589 121.013 13.6553 119.831C14.9756 118.788 16.5241 118.116 18.1344 117.887C18.3338 117.858 18.5573 117.832 18.7832 117.832C19.0653 117.832 19.3506 117.872 19.596 117.992C19.7001 118.09 19.6982 118.612 19.6248 118.772L19.4045 119.108L19.6304 119.442C19.7558 119.663 19.9775 120.785 20.0658 121.433C20.1792 122.268 20.2959 123.014 20.4055 123.718C20.6686 125.406 20.8958 126.864 20.9442 128.71C20.9442 128.715 20.9446 128.72 20.9446 128.725C20.8847 128.706 20.8034 128.674 20.6965 128.623Z" fill="white"/>
<path d="M20.1113 119.103C20.3525 119.461 20.6049 121.08 20.6416 121.349C21.0324 124.22 21.4563 126.04 21.5251 128.693C21.546 129.454 21.1161 129.49 20.4529 129.171C19.4296 128.679 18.3337 128.066 16.9837 126.961C15.7029 125.912 14.7534 125.143 13.5684 123.98C13.3625 123.78 12.9238 123.169 12.671 123.042C12.4711 122.943 12.9744 121.295 15.2893 119.899C18.6614 117.866 20.0031 118.942 20.1113 119.103Z" fill="#F5A81C"/>
<path d="M20.1108 119.103C15.2148 119.296 12.6704 123.042 12.6704 123.042C12.4706 122.943 12.2521 122.896 12.0542 122.793C10.1492 121.827 12.4747 120.005 13.3043 119.35C14.6855 118.259 16.3348 117.533 18.0548 117.288C18.6599 117.201 19.3007 117.179 19.8496 117.45C20.4008 117.72 20.292 118.816 20.1108 119.103Z" fill="#D89221"/>
<path d="M15.8661 123.605C16.3386 123.605 16.7216 123.206 16.7216 122.715C16.7216 122.224 16.3386 121.825 15.8661 121.825C15.3935 121.825 15.0105 122.224 15.0105 122.715C15.0105 123.206 15.3935 123.605 15.8661 123.605Z" fill="#E6133E"/>
<path d="M19.3699 125.781C19.9527 125.781 20.4253 125.29 20.4253 124.684C20.4253 124.077 19.9527 123.586 19.3699 123.586C18.787 123.586 18.3145 124.077 18.3145 124.684C18.3145 125.29 18.787 125.781 19.3699 125.781Z" fill="#E6133E"/>
<path d="M18.3218 122.406C18.4152 122.162 18.8242 122.131 18.9636 122.338C19.1253 122.577 19.5055 122.345 19.3424 122.103C18.9701 121.551 18.1327 121.671 17.8961 122.288C17.7911 122.562 18.2182 122.676 18.3218 122.406Z" fill="#BA0F38"/>
<path d="M16.5872 124.068C16.5816 124.205 16.5946 124.344 16.6272 124.477C16.6569 124.6 16.7052 124.79 16.8177 124.856C17.0282 124.98 17.3549 124.886 17.5464 124.77C17.7913 124.621 17.5664 124.227 17.321 124.376C17.216 124.44 17.1035 124.462 16.9836 124.436C17.0278 124.47 17.0719 124.505 17.1161 124.54C17.0459 124.39 17.0217 124.233 17.0282 124.068C17.0394 123.773 16.5983 123.774 16.5872 124.068Z" fill="#BA0F38"/>
<path d="M18.7484 126.778C18.7637 127.085 18.9357 127.36 19.2187 127.466C19.4896 127.568 19.8043 127.472 19.9915 127.248C20.1765 127.026 19.8628 126.704 19.6765 126.928C19.5143 127.122 19.2034 127.062 19.1894 126.778C19.175 126.484 18.734 126.483 18.7484 126.778Z" fill="#BA0F38"/>
<path d="M18.7366 120.913C19.0098 120.834 18.8937 120.393 18.6199 120.471C18.3467 120.549 18.4629 120.991 18.7366 120.913Z" fill="white"/>
<path d="M20.2283 123.099C20.5015 123.02 20.3854 122.579 20.1116 122.657C19.8384 122.735 19.9546 123.177 20.2283 123.099Z" fill="white"/>
<path d="M20.5232 128.61C20.5873 128.565 20.6519 128.52 20.716 128.475C20.9502 128.312 20.7267 127.917 20.4906 128.081C20.4265 128.126 20.3619 128.171 20.2978 128.216C20.0631 128.38 20.2866 128.775 20.5232 128.61Z" fill="white"/>
<path d="M20.6802 126.533C20.6737 126.508 20.6672 126.483 20.6607 126.459C20.5854 126.175 20.1607 126.296 20.236 126.581C20.2425 126.605 20.249 126.63 20.2555 126.654C20.3303 126.938 20.7555 126.817 20.6802 126.533Z" fill="white"/>
<path d="M17.4978 126.018C17.771 125.939 17.6549 125.498 17.3811 125.576C17.1074 125.654 17.224 126.096 17.4978 126.018Z" fill="white"/>
<path d="M15.8657 124.743C16.139 124.664 16.0228 124.223 15.7491 124.301C15.4758 124.379 15.592 124.821 15.8657 124.743Z" fill="white"/>
<path d="M16.9472 121.345C17.2205 121.267 17.1043 120.825 16.8306 120.904C16.5569 120.982 16.6735 121.423 16.9472 121.345Z" fill="#D89221"/>
<path d="M17.0636 121.787C17.0399 121.794 17.0162 121.8 16.993 121.807C16.7197 121.885 16.8359 122.327 17.1096 122.249C17.1333 122.242 17.157 122.235 17.1803 122.229C17.454 122.15 17.3374 121.709 17.0636 121.787Z" fill="#D89221"/>
<path d="M17.9241 123.599C17.9478 123.592 17.9715 123.586 17.9947 123.579C18.268 123.501 18.1518 123.059 17.8781 123.137C17.8544 123.144 17.8307 123.151 17.8074 123.158C17.5342 123.236 17.6504 123.678 17.9241 123.599Z" fill="#D89221"/>
<path d="M19.747 120.703C20.0203 120.624 19.9041 120.183 19.6304 120.261C19.3567 120.339 19.4733 120.781 19.747 120.703Z" fill="#D89221"/>
<path d="M14.5682 123.292C14.5747 123.317 14.5812 123.342 14.5877 123.366C14.663 123.65 15.0878 123.529 15.0125 123.245C15.006 123.22 14.9995 123.195 14.993 123.171C14.9182 122.887 14.4929 123.008 14.5682 123.292Z" fill="#D89221"/>
<path d="M15.1827 124.463C15.2064 124.456 15.2301 124.449 15.2534 124.442C15.5266 124.364 15.4104 123.923 15.1363 124.001C15.1126 124.008 15.0893 124.014 15.0656 124.021C14.7928 124.099 14.909 124.541 15.1827 124.463Z" fill="#D89221"/>
<path d="M18.3953 127.107C18.6686 127.029 18.5524 126.587 18.2782 126.665C18.005 126.743 18.1216 127.186 18.3953 127.107Z" fill="#D89221"/>
<path d="M11.9091 121.697C12.0257 122.045 12.3464 122.233 12.6926 122.173C12.8102 122.153 12.8757 122.002 12.8465 121.892C12.8121 121.762 12.6936 121.711 12.5755 121.732C12.4779 121.749 12.365 121.67 12.3334 121.576C12.2943 121.459 12.1828 121.381 12.0624 121.416C11.9537 121.447 11.8696 121.58 11.9091 121.697Z" fill="#F5A81C"/>
<path d="M12.5561 121.069C12.7118 121.296 12.9316 121.459 13.1974 121.513C13.4749 121.569 13.5897 121.127 13.3108 121.07C13.1607 121.04 13.025 120.966 12.9344 120.835C12.8652 120.734 12.7406 120.688 12.6323 120.755C12.5371 120.814 12.4864 120.967 12.5561 121.069Z" fill="#F5A81C"/>
<path d="M13.528 120.436C13.6549 120.702 13.9346 120.816 14.2061 120.77C14.3236 120.75 14.3892 120.599 14.3599 120.488C14.3255 120.358 14.207 120.309 14.0889 120.328C14.0048 120.342 13.9393 120.271 13.9063 120.201C13.8533 120.09 13.7009 120.062 13.6042 120.122C13.4955 120.189 13.475 120.325 13.528 120.436Z" fill="#F5A81C"/>
<path d="M18.124 120.9C18.1216 120.89 18.1193 120.881 18.1165 120.872C18.0705 120.699 17.8804 120.575 17.7103 120.632C17.5398 120.689 17.4301 120.869 17.4794 121.054C17.4817 121.063 17.484 121.073 17.4868 121.082C17.5328 121.255 17.7229 121.379 17.893 121.322C18.0635 121.265 18.1732 121.086 18.124 120.9Z" fill="#356FA1"/>
<path d="M16.8815 125.382C16.8792 125.373 16.8769 125.364 16.8741 125.355C16.8281 125.181 16.638 125.058 16.4679 125.115C16.2974 125.172 16.1877 125.351 16.2369 125.537C16.2393 125.546 16.2421 125.555 16.2444 125.565C16.2904 125.737 16.4805 125.862 16.6506 125.805C16.8211 125.747 16.9308 125.568 16.8815 125.382Z" fill="#356FA1"/>
<path d="M19.8455 122.011C20.2553 121.893 20.0811 121.231 19.6702 121.348C19.2604 121.466 19.4346 122.128 19.8455 122.011Z" fill="#356FA1"/>
<path d="M14.3308 122.757C14.3397 122.754 14.3485 122.752 14.3573 122.749C14.5242 122.701 14.6431 122.503 14.5883 122.327C14.533 122.149 14.3606 122.035 14.1821 122.086C14.1733 122.089 14.1645 122.091 14.1556 122.094C13.9888 122.142 13.8698 122.34 13.9247 122.516C13.98 122.693 14.1524 122.807 14.3308 122.757Z" fill="#356FA1"/>
<path d="M157.085 190.043C167.207 190.043 175.413 188.346 175.413 186.253C175.413 184.159 167.207 182.462 157.085 182.462C146.963 182.462 138.757 184.159 138.757 186.253C138.757 188.346 146.963 190.043 157.085 190.043Z" fill="#CCE2F2"/>
<path d="M150.671 164.229C150.374 160.295 149.851 157.078 148.719 155.071C145.932 150.133 135.869 147.882 135.869 141.152C137.811 142.652 140.073 144.119 142.773 145.041C145.892 146.106 147.453 146.946 149.581 147.532C152.484 148.333 154.475 151.139 155.637 154.019C156.701 156.654 157.275 159.501 157.317 162.359C157.323 162.702 157.318 163.057 157.191 163.373C155.339 167.964 150.939 167.778 150.671 164.229Z" fill="#73ACE0"/>
<path d="M138.176 144.443C140.87 147.728 145.263 148.92 148.577 151.361C150.698 152.924 152.009 154.945 152.534 157.613C153.111 160.545 152.894 163.595 152.872 166.566C152.87 166.855 153.301 166.855 153.303 166.566C153.342 161.414 153.946 155.334 149.7 151.69C146.278 148.754 141.404 147.69 138.48 144.125C138.301 143.905 137.997 144.224 138.176 144.443Z" fill="#95C4EF"/>
<path d="M151.519 128.955C150.561 129.046 149.524 128.829 148.844 128.121C148.164 127.414 148.673 126.155 149.336 125.431C149.111 125.322 148.232 125.163 148.053 124.987C147.27 124.222 147.494 122.937 148.352 122.264C148.436 122.199 148.509 122.121 148.57 122.032C148.057 121.435 147.297 120.93 147.333 119.878C147.369 118.826 148.098 118.149 148.688 118.271C147.948 117.729 148.56 116.028 149.875 115.991C151.223 115.953 151.85 117.13 151.774 118.028C152.94 117.747 153.968 119.704 153.51 120.877C154.354 120.705 154.847 121.319 155 122.199C155.162 123.131 154.448 123.721 154.448 123.721C156.216 124.477 156.071 126.31 155.275 127.162C155.457 127.251 155.629 127.359 155.79 127.484C156.436 127.984 156.325 129.028 155.61 129.413L155.598 129.419C155.6 129.422 155.603 129.425 155.606 129.429C156.023 129.974 155.844 130.855 155.223 131.118C154.704 131.338 155.195 131.171 153.705 131.487C151.062 132.048 150.411 129.06 151.519 128.955Z" fill="#86B8ED"/>
<path d="M156.525 165.225C157.411 149.971 156.75 133.941 150.899 119.736C150.653 119.14 149.817 119.654 150.06 120.245C155.837 134.27 156.429 150.172 155.554 165.225C155.517 165.874 156.488 165.871 156.525 165.225Z" fill="#5E9DCC"/>
<path d="M162.465 144.465C166.73 139.121 173.721 135.873 175.89 129.307C176.352 133.285 176.757 137.581 174.85 141.064C173.495 143.541 171.155 145.236 169.313 147.347C164.909 152.392 163.547 159.798 164.777 166.491C164.913 167.226 165.027 168.119 164.478 168.603C164.214 168.836 163.856 168.907 163.514 168.97C158.638 169.871 158.277 162.444 158.083 158.615C157.828 153.56 159.343 148.377 162.465 144.465Z" fill="#5E9DCC"/>
<path d="M173.993 136.811C173.015 139.336 170.847 141.238 168.953 143.021C167.153 144.716 165.206 146.385 163.839 148.498C160.517 153.634 161.311 160.428 161.469 166.269C161.477 166.557 161.908 166.559 161.9 166.269C161.737 160.187 160.868 152.959 164.822 147.872C167.743 144.115 172.618 141.556 174.409 136.93C174.513 136.663 174.096 136.546 173.993 136.811Z" fill="#95C4EF"/>
<path d="M154.796 148.623C156.185 143.04 158.599 137.768 159.866 132.155C160.992 127.167 161.19 121.954 160.445 116.889C166.314 126.372 165.482 135.554 163.248 144.702C162.616 147.289 161.615 149.765 160.96 152.346C159.57 157.817 160.151 162.97 161.276 168.383C152.35 170.801 153.711 152.981 154.796 148.623Z" fill="#73ACE0"/>
<path d="M162.174 126.664C162.915 133.569 160.97 140.061 158.864 146.518C156.733 153.056 156.879 159.795 157.75 166.566C157.787 166.849 158.219 166.852 158.182 166.566C157.744 163.164 157.453 159.732 157.566 156.297C157.685 152.653 158.41 149.255 159.549 145.821C161.604 139.626 163.314 133.278 162.605 126.665C162.575 126.38 162.143 126.377 162.174 126.664Z" fill="#95C4EF"/>
<path d="M156.578 155.15C156.654 152.335 156.675 149.315 155.168 146.975C154.479 145.905 153.519 145.064 152.643 144.154C146.483 137.754 144.672 128.244 143.149 119.329C141.778 123.371 140.393 127.473 140.118 131.75C139.842 136.026 140.81 140.571 143.619 143.707C145.679 146.008 148.588 147.419 150.384 149.948C152.267 152.6 152.644 156.094 152.522 159.388C152.453 161.245 152.249 163.13 152.643 164.943C153.031 166.727 154.113 168.438 155.846 168.908C156.472 164.376 156.455 159.753 156.578 155.15Z" fill="#86B8ED"/>
<path d="M142.539 127.688C142.133 130.905 142.413 134.47 143.615 137.486C144.807 140.477 147.131 142.593 149.281 144.831C150.478 146.077 151.615 147.398 152.45 148.939C153.462 150.808 153.876 152.925 153.967 155.05C154.055 157.092 153.819 159.126 153.749 161.164C153.67 163.413 153.696 165.662 153.791 167.909C153.803 168.197 154.235 168.198 154.223 167.909C154.131 165.734 154.103 163.558 154.172 161.382C154.238 159.336 154.478 157.292 154.407 155.244C154.283 151.681 153.159 148.623 150.891 145.947C148.752 143.424 146.052 141.384 144.494 138.37C142.862 135.211 142.527 131.197 142.97 127.689C143.007 127.403 142.575 127.406 142.539 127.688Z" fill="#ACD5F9"/>
<path d="M166.351 161.806C166.877 161.806 167.295 162.265 167.266 162.811L166.832 170.998L166.758 172.407L166.465 177.957L166.392 179.316L166.076 185.328C166.047 185.869 165.617 186.292 165.096 186.292H149.291C148.77 186.292 148.341 185.869 148.312 185.328L147.85 176.57L147.763 174.955L147.457 169.131L147.375 167.637L147.122 162.809C147.093 162.263 147.511 161.805 148.037 161.805H166.351V161.806Z" fill="#296089"/>
<path d="M166.833 170.998L166.759 172.407C166.44 172.403 166.112 172.367 165.784 172.295C162.971 171.667 160.088 166.391 157.352 169.769C156.049 171.375 155.355 172.68 152.998 172.178C151.816 171.922 149.443 169.903 147.458 169.131L147.376 167.637C148.649 167.916 149.689 168.782 150.737 169.53C151.531 170.096 152.364 170.72 153.344 170.881C154.841 171.123 155.363 170.208 156.235 169.086C157.542 167.408 158.91 166.758 160.99 167.66C162.384 168.265 163.307 169.508 164.589 170.293C165.326 170.752 166.09 170.99 166.833 170.998Z" fill="#95C4EF"/>
<path d="M166.465 177.957L166.392 179.316C165.904 179.361 165.404 179.352 164.903 179.276C164.053 179.146 163.225 178.85 162.495 178.37C161.322 177.598 160.592 176.059 158.961 176.391C156.89 176.808 155.768 179.155 153.468 179.155C152.294 179.155 149.843 177.329 147.85 176.571L147.763 174.955C147.802 174.96 147.837 174.973 147.876 174.982C149.062 175.328 150.012 176.198 151.043 176.853C153.093 178.163 154.504 177.755 156.277 176.472C157.731 175.422 159.246 174.417 161.002 175.382C162.318 176.104 162.996 177.419 164.528 177.832C165.179 178.007 165.831 178.047 166.465 177.957Z" fill="#95C4EF"/>
<path d="M149.991 173.632C150.039 173.582 150.087 173.533 150.135 173.482C150.383 173.225 150.383 172.788 150.135 172.531C149.887 172.273 149.468 172.273 149.22 172.531C149.172 172.58 149.124 172.63 149.076 172.68C148.829 172.937 148.829 173.375 149.076 173.632C149.324 173.89 149.744 173.89 149.991 173.632Z" fill="white"/>
<path d="M152.411 175.325C152.459 175.325 152.507 175.325 152.555 175.325C152.893 175.325 153.218 175.015 153.202 174.652C153.186 174.287 152.918 173.979 152.555 173.979C152.507 173.979 152.459 173.979 152.411 173.979C152.072 173.979 151.748 174.288 151.763 174.652C151.779 175.017 152.048 175.325 152.411 175.325Z" fill="white"/>
<path d="M157.086 173.904C157.086 173.855 157.086 173.805 157.086 173.755C157.086 173.403 156.788 173.066 156.438 173.082C156.087 173.098 155.791 173.378 155.791 173.755C155.791 173.805 155.791 173.855 155.791 173.904C155.791 174.257 156.089 174.594 156.438 174.577C156.789 174.561 157.086 174.282 157.086 173.904Z" fill="white"/>
<path d="M158.883 172.334C158.931 172.334 158.979 172.334 159.027 172.334C159.366 172.334 159.69 172.024 159.674 171.661C159.659 171.296 159.39 170.988 159.027 170.988C158.979 170.988 158.931 170.988 158.883 170.988C158.545 170.988 158.22 171.298 158.236 171.661C158.252 172.026 158.52 172.334 158.883 172.334Z" fill="white"/>
<path d="M162.479 174.129C163.311 174.129 163.313 172.782 162.479 172.782C161.646 172.783 161.644 174.129 162.479 174.129Z" fill="white"/>
<path d="M164.925 175.475C165.757 175.475 165.759 174.129 164.925 174.129C164.091 174.129 164.09 175.475 164.925 175.475Z" fill="white"/>
<path d="M91.1255 74.1907L78.1836 58.5855C80.8024 53.1408 82.2844 47.0018 82.2844 40.5C82.2844 18.1324 64.8449 0 43.3319 0C21.8189 0 4.37891 18.1329 4.37891 40.5004C4.37891 62.868 21.8185 81.0004 43.3314 81.0004C54.2308 81.0004 64.0794 76.3405 71.1494 68.8389L91.1255 74.1907Z" fill="#BCD7EE"/>
<path d="M54.7973 14.4003H31.8033C29.6804 14.4003 27.959 16.1895 27.959 18.3973V63.5939C27.959 65.8011 29.6804 67.5909 31.8033 67.5909H54.7973C56.9202 67.5909 58.6416 65.8011 58.6416 63.5939V18.3973C58.6416 16.1895 56.9202 14.4003 54.7973 14.4003Z" fill="white"/>
<path d="M57.2654 20.9769H29.3345V61.014H57.2654V20.9769Z" fill="#356FA1"/>
<path d="M43.3004 65.1507C44.1053 65.1507 44.7578 64.4723 44.7578 63.6354C44.7578 62.7985 44.1053 62.1201 43.3004 62.1201C42.4955 62.1201 41.843 62.7985 41.843 63.6354C41.843 64.4723 42.4955 65.1507 43.3004 65.1507Z" fill="#356FA1"/>
<path d="M45.5753 16.9921H41.1957C40.9313 16.9921 40.7166 17.2153 40.7166 17.4902C40.7166 17.7652 40.9308 17.9884 41.1957 17.9884H45.5753C45.8398 17.9884 46.0545 17.7657 46.0545 17.4902C46.0545 17.2153 45.8402 16.9921 45.5753 16.9921Z" fill="#181A44"/>
<path d="M49.2274 18.2783C49.5691 18.2783 49.846 17.9904 49.846 17.6352C49.846 17.28 49.5691 16.9921 49.2274 16.9921C48.8858 16.9921 48.6089 17.28 48.6089 17.6352C48.6089 17.9904 48.8858 18.2783 49.2274 18.2783Z" fill="#181A44"/>
<path d="M49.88 33.6923C49.4446 32.7138 48.9831 31.6769 48.4909 30.5095C48.3896 30.2693 47.6112 28.4438 46.935 27.505C46.9457 26.8783 46.7617 26.1119 46.4424 25.5678C46.0283 24.8628 45.4939 24.6367 45.1202 24.571C43.9119 24.356 42.7705 24.7754 41.9126 25.1639C39.3552 26.3153 37.098 28.1669 35.3664 30.5433C33.9759 32.4505 32.7723 34.4364 33.3718 36.0401C33.5828 36.6045 34.1149 37.3307 35.4468 37.5844C35.6759 37.6298 35.8911 37.6424 36.0807 37.653C36.2094 37.6603 36.3377 37.6661 36.4409 37.6835C36.6017 37.7332 37.0571 38.0434 37.302 38.2101C37.539 38.372 37.7542 38.5155 37.8983 38.5928C40.0625 39.7752 41.776 40.5159 43.9449 41.4538L44.1754 41.5534C46.7979 42.6874 48.7702 43.1131 50.354 43.3798C50.763 43.4485 51.2821 43.5011 51.7515 43.3644C52.0317 43.2827 52.2948 43.1339 52.5058 42.8812C52.8859 42.426 52.9621 41.8046 52.7325 41.0354C51.897 38.2237 50.9624 36.1237 49.88 33.6923ZM50.6385 41.5596C49.1564 41.3098 47.3105 40.9122 44.8572 39.8511L44.6267 39.7515C42.415 38.7953 40.8177 38.1048 38.7199 36.9587C38.6098 36.8992 38.4518 36.7886 38.2752 36.6683C37.6659 36.2532 37.2016 35.9527 36.7731 35.8729C36.5766 35.8372 36.3786 35.8232 36.1806 35.812C36.0468 35.8043 35.9129 35.799 35.7735 35.7715C35.5328 35.7255 35.1154 35.613 35.0258 35.3723C34.8789 34.9785 35.0634 34.0141 36.7982 31.6343C38.3286 29.5349 40.3409 27.8833 42.6204 26.857C42.902 26.7294 43.2213 26.5966 43.5536 26.4999C43.9686 26.3791 44.4045 26.3148 44.813 26.3868C45.0054 26.4878 45.209 27.2556 45.1644 27.5228L44.9729 28.1104L45.4381 28.5066C45.71 28.7772 46.4805 30.3331 46.8667 31.2502V31.2507C47.364 32.4306 47.831 33.4787 48.2711 34.4673C49.326 36.8388 50.2379 38.8866 51.0391 41.5824C51.0414 41.5901 51.0437 41.5973 51.0456 41.6046C50.948 41.6012 50.8155 41.5896 50.6385 41.5596Z" fill="white"/>
<path d="M46.0089 27.8016C46.5053 28.2244 47.5175 30.4983 47.6782 30.8796C49.3894 34.9374 50.7334 37.4346 51.885 41.3084C52.2173 42.4197 51.5983 42.6555 50.4964 42.47C48.7959 42.1834 46.9407 41.751 44.5167 40.7024C42.2167 39.7075 40.5149 38.9808 38.3111 37.7772C37.9291 37.5708 37.0419 36.8601 36.619 36.7808C36.2853 36.7199 36.3741 34.0798 39.228 31.0356C43.3846 26.6014 45.7849 27.6112 46.0089 27.8016Z" fill="#F5A81C"/>
<path d="M46.0089 27.8016C38.8808 30.1808 36.6189 36.7813 36.6189 36.7813C36.2852 36.7204 35.946 36.7446 35.6132 36.6788C32.4275 36.0724 35.129 32.3963 36.0905 31.0772C37.6915 28.8806 39.8311 27.1068 42.265 26.0109C43.1205 25.6233 44.0551 25.317 44.9702 25.4803C45.8876 25.6417 46.1613 27.301 46.0089 27.8016Z" fill="#D89221"/>
<path d="M41.1906 36.2919C41.9126 36.2919 42.4979 35.6834 42.4979 34.9327C42.4979 34.182 41.9126 33.5735 41.1906 33.5735C40.4686 33.5735 39.8833 34.182 39.8833 34.9327C39.8833 35.6834 40.4686 36.2919 41.1906 36.2919Z" fill="#E6133E"/>
<path d="M47.1263 38.0072C48.0169 38.0072 48.7389 37.2565 48.7389 36.3305C48.7389 35.4045 48.0169 34.6538 47.1263 34.6538C46.2357 34.6538 45.5137 35.4045 45.5137 36.3305C45.5137 37.2565 46.2357 38.0072 47.1263 38.0072Z" fill="#E6133E"/>
<path d="M44.6822 33.427C44.7231 33.0289 45.3124 32.8071 45.5996 33.0521C45.9324 33.3357 46.3999 32.8317 46.0639 32.5452C45.2976 31.8919 44.1129 32.4263 44.0088 33.4357C43.9628 33.8832 44.6367 33.8696 44.6822 33.427Z" fill="#BA0F38"/>
<path d="M42.787 36.6151C42.8334 36.8195 42.9069 37.018 43.0077 37.2002C43.1002 37.3679 43.2466 37.6269 43.4385 37.6762C43.7973 37.7689 44.2406 37.4896 44.4767 37.2369C44.7783 36.9142 44.2918 36.43 43.9892 36.7542C43.86 36.8929 43.7029 36.9746 43.5161 36.9866C43.5947 37.019 43.6737 37.0509 43.7522 37.0833C43.5895 36.8934 43.492 36.6726 43.4362 36.4266C43.3353 35.9874 42.6875 36.1778 42.787 36.6151Z" fill="#BA0F38"/>
<path d="M47.0404 39.6771C47.184 40.1217 47.5465 40.4527 48.0047 40.4884C48.4439 40.5227 48.8691 40.2468 49.0555 39.8371C49.24 39.4317 48.6507 39.0925 48.4648 39.5012C48.3031 39.8564 47.8216 39.9009 47.6887 39.4892C47.5516 39.063 46.9024 39.25 47.0404 39.6771Z" fill="#BA0F38"/>
<path d="M44.7016 31.052C45.073 30.8201 44.7267 30.22 44.355 30.4519C43.9836 30.6843 44.3299 31.2844 44.7016 31.052Z" fill="white"/>
<path d="M47.7627 33.6309C48.134 33.3989 47.7878 32.7988 47.416 33.0308C47.0447 33.2627 47.3909 33.8628 47.7627 33.6309Z" fill="white"/>
<path d="M50.3769 41.6148C50.4536 41.521 50.5308 41.4278 50.6074 41.334C50.8872 40.9934 50.402 40.5078 50.1199 40.8513C50.0433 40.9446 49.9661 41.0383 49.8894 41.1316C49.6092 41.4727 50.0944 41.9583 50.3769 41.6148Z" fill="white"/>
<path d="M49.7863 38.4908C49.7672 38.4575 49.7477 38.4242 49.7286 38.3908C49.5056 38.0047 48.9284 38.3647 49.1514 38.7513C49.1705 38.7846 49.19 38.818 49.2091 38.8513C49.4321 39.2374 50.0098 38.8774 49.7863 38.4908Z" fill="white"/>
<path d="M44.8987 39.0944C45.27 38.8624 44.9238 38.2623 44.552 38.4943C44.1807 38.7262 44.5269 39.3268 44.8987 39.0944Z" fill="white"/>
<path d="M41.9929 37.9159C42.3642 37.684 42.018 37.0839 41.6462 37.3158C41.2749 37.5482 41.6211 38.1483 41.9929 37.9159Z" fill="white"/>
<path d="M42.2398 32.4544C42.6111 32.2225 42.2649 31.6219 41.8931 31.8543C41.5218 32.0862 41.8676 32.6868 42.2398 32.4544Z" fill="#D89221"/>
<path d="M42.5866 33.054C42.5546 33.0738 42.5225 33.0941 42.4904 33.1139C42.1191 33.3458 42.4653 33.946 42.8371 33.714C42.8692 33.6937 42.9013 33.6739 42.9333 33.6541C43.3047 33.4222 42.9584 32.8216 42.5866 33.054Z" fill="#D89221"/>
<path d="M44.5696 35.3535C44.6016 35.3332 44.6337 35.3134 44.6658 35.2936C45.0371 35.0617 44.6909 34.4615 44.3191 34.6935C44.287 34.7138 44.2549 34.7336 44.2229 34.7534C43.8515 34.9853 44.1978 35.5859 44.5696 35.3535Z" fill="#D89221"/>
<path d="M46.106 30.3109C46.4773 30.079 46.1311 29.4789 45.7593 29.7108C45.388 29.9432 45.7338 30.5433 46.106 30.3109Z" fill="#D89221"/>
<path d="M39.5098 36.3373C39.5288 36.3707 39.5483 36.404 39.5674 36.4374C39.7905 36.8234 40.3682 36.4634 40.1446 36.0769C40.1256 36.0436 40.106 36.0102 40.087 35.9769C39.8634 35.5908 39.2862 35.9508 39.5098 36.3373Z" fill="#D89221"/>
<path d="M40.8764 37.7965C40.9085 37.7767 40.9406 37.7564 40.9726 37.7366C41.344 37.5047 40.9977 36.9045 40.626 37.1365C40.5939 37.1563 40.5618 37.1766 40.5298 37.1964C40.1584 37.4288 40.5047 38.0289 40.8764 37.7965Z" fill="#D89221"/>
<path d="M46.6509 40.3135C47.0222 40.0816 46.676 39.4814 46.3042 39.7134C45.9328 39.9453 46.2791 40.5459 46.6509 40.3135Z" fill="#D89221"/>
<path d="M34.9653 35.1278C35.2748 35.5897 35.8208 35.7294 36.3069 35.4931C36.4719 35.4129 36.5091 35.1631 36.4222 35.0128C36.3204 34.8369 36.1257 34.8127 35.9603 34.8929C35.8232 34.9596 35.6261 34.892 35.5425 34.7673C35.4384 34.6122 35.2441 34.5455 35.0805 34.6475C34.9327 34.7398 34.8612 34.9717 34.9653 35.1278Z" fill="#F5A81C"/>
<path d="M35.6687 33.9258C35.9875 34.1925 36.376 34.3394 36.7883 34.3046C37.2186 34.2683 37.2126 33.5682 36.7799 33.6044C36.5466 33.6242 36.3184 33.5735 36.1325 33.4184C35.9908 33.3 35.7896 33.2855 35.6566 33.4305C35.5395 33.559 35.5265 33.8064 35.6687 33.9258Z" fill="#F5A81C"/>
<path d="M36.8484 32.5796C37.1402 32.9173 37.5971 32.9642 37.9781 32.781C38.1436 32.7018 38.1798 32.4505 38.0934 32.3007C37.9911 32.1239 37.7974 32.1012 37.6314 32.1809C37.5134 32.2374 37.3889 32.1606 37.3126 32.0722C37.1909 31.9316 36.9553 31.9553 36.8368 32.0843C36.7029 32.2302 36.7261 32.4385 36.8484 32.5796Z" fill="#F5A81C"/>
<path d="M43.7953 31.2952C43.7879 31.2826 43.7809 31.27 43.7735 31.2575C43.6373 31.0222 43.3083 30.9212 43.0806 31.0777C42.8524 31.2352 42.7622 31.5459 42.9077 31.7982C42.9151 31.8107 42.9221 31.8233 42.9295 31.8359C43.0657 32.0712 43.3947 32.1722 43.6225 32.0156C43.8506 31.8581 43.9408 31.5474 43.7953 31.2952Z" fill="#356FA1"/>
<path d="M43.7416 38.4222C43.7347 38.4097 43.7272 38.3971 43.7198 38.3845C43.5836 38.1492 43.2546 38.0482 43.0269 38.2048C42.7987 38.3623 42.7085 38.673 42.854 38.9252C42.8614 38.9378 42.8684 38.9504 42.8758 38.9629C43.012 39.1982 43.341 39.2992 43.5687 39.1427C43.7969 38.9852 43.8876 38.6745 43.7416 38.4222Z" fill="#356FA1"/>
<path d="M46.7682 32.1933C47.3249 31.8454 46.8058 30.9447 46.2481 31.2936C45.6914 31.6415 46.2105 32.5417 46.7682 32.1933Z" fill="#356FA1"/>
<path d="M38.9492 35.6497C38.9612 35.6424 38.9733 35.6347 38.9854 35.627C39.2117 35.4854 39.3089 35.1433 39.1583 34.9065C39.0068 34.6693 38.708 34.5755 38.4654 34.7268C38.4533 34.7345 38.4412 34.7418 38.4291 34.7495C38.2028 34.8911 38.1057 35.2332 38.2562 35.4699C38.4077 35.7077 38.7066 35.8014 38.9492 35.6497Z" fill="#356FA1"/>
<path d="M46.189 54.012H42.0524C41.9376 54.012 41.834 53.941 41.7889 53.8313L40.2948 50.2112C40.2939 50.2088 40.2929 50.2069 40.2925 50.2045L39.7966 49.0032H39.1334C38.9749 49.0032 38.8467 48.8699 38.8467 48.7051C38.8467 48.5403 38.9749 48.407 39.1334 48.407H39.9857C40.1005 48.407 40.2042 48.478 40.2492 48.5877L40.7465 49.7923H47.6538C47.75 49.7923 47.8397 49.8426 47.8927 49.9252C47.9461 50.0083 47.9554 50.1136 47.9183 50.2059L46.4534 53.8294C46.4088 53.94 46.3047 54.012 46.189 54.012ZM42.2416 53.4158H45.9989L47.2226 50.3886H40.9923L42.2416 53.4158Z" fill="white"/>
<path d="M42.7699 53.0959C42.6114 53.0959 42.4832 52.9625 42.4832 52.7978V51.209C42.4832 51.0443 42.6114 50.9109 42.7699 50.9109C42.9284 50.9109 43.0566 51.0443 43.0566 51.209V52.7978C43.0566 52.9625 42.9284 53.0959 42.7699 53.0959Z" fill="white"/>
<path d="M43.9996 53.0959C43.8412 53.0959 43.7129 52.9625 43.7129 52.7978V51.209C43.7129 51.0443 43.8412 50.9109 43.9996 50.9109C44.1581 50.9109 44.2864 51.0443 44.2864 51.209V52.7978C44.2864 52.9625 44.1581 53.0959 43.9996 53.0959Z" fill="white"/>
<path d="M45.2301 53.0959C45.0716 53.0959 44.9434 52.9625 44.9434 52.7978V51.209C44.9434 51.0443 45.0716 50.9109 45.2301 50.9109C45.3886 50.9109 45.5168 51.0443 45.5168 51.209V52.7978C45.5168 52.9625 45.3886 53.0959 45.2301 53.0959Z" fill="white"/>
<path d="M42.9896 56.3768C42.484 56.3768 42.0723 55.9491 42.0723 55.4229C42.0723 54.8972 42.4836 54.4696 42.9896 54.4696C43.4953 54.4696 43.9066 54.8972 43.9066 55.4229C43.9066 55.9491 43.4953 56.3768 42.9896 56.3768ZM42.9896 55.0659C42.8 55.0659 42.6462 55.2263 42.6462 55.4229C42.6462 55.6201 42.8 55.7805 42.9896 55.7805C43.1788 55.7805 43.3331 55.6206 43.3331 55.4229C43.3331 55.2263 43.1788 55.0659 42.9896 55.0659Z" fill="white"/>
<path d="M45.5075 56.3768C45.0019 56.3768 44.5906 55.9491 44.5906 55.4229C44.5906 54.8972 45.0019 54.4696 45.5075 54.4696C46.0131 54.4696 46.4249 54.8972 46.4249 55.4229C46.4249 55.9491 46.0131 56.3768 45.5075 56.3768ZM45.5075 55.0659C45.3183 55.0659 45.1641 55.2263 45.1641 55.4229C45.1641 55.6201 45.3179 55.7805 45.5075 55.7805C45.6971 55.7805 45.8514 55.6206 45.8514 55.4229C45.8509 55.2263 45.6971 55.0659 45.5075 55.0659Z" fill="white"/>
<path d="M43.3008 58.0936C39.7382 58.0936 36.8401 55.0804 36.8401 51.3762C36.8401 47.672 39.7382 44.6588 43.3008 44.6588C46.8634 44.6588 49.7615 47.672 49.7615 51.3762C49.7615 55.0804 46.8634 58.0936 43.3008 58.0936ZM43.3008 45.2551C40.0546 45.2551 37.4136 48.0011 37.4136 51.3762C37.4136 54.7513 40.0546 57.4973 43.3008 57.4973C46.547 57.4973 49.188 54.7513 49.188 51.3762C49.188 48.0011 46.547 45.2551 43.3008 45.2551Z" fill="white"/>
<path d="M60.4643 37.756C64.1847 37.756 67.2006 34.6202 67.2006 30.7521C67.2006 26.8839 64.1847 23.7482 60.4643 23.7482C56.744 23.7482 53.728 26.8839 53.728 30.7521C53.728 34.6202 56.744 37.756 60.4643 37.756Z" fill="#181A44"/>
<path d="M60.4649 36.8167C63.6863 36.8167 66.2978 34.1015 66.2978 30.7521C66.2978 27.4027 63.6863 24.6875 60.4649 24.6875C57.2435 24.6875 54.6321 27.4027 54.6321 30.7521C54.6321 34.1015 57.2435 36.8167 60.4649 36.8167Z" fill="white"/>
<path d="M60.313 34.477L56.2173 28.869L57.8378 27.5895L60.6155 31.3927L67.4936 25.1455L68.8325 26.7391L60.313 34.477Z" fill="#356FA1"/>
<path d="M156.654 207.003C194.72 207.003 225.578 205.175 225.578 202.92C225.578 200.665 194.72 198.838 156.654 198.838C118.589 198.838 87.7305 200.665 87.7305 202.92C87.7305 205.175 118.589 207.003 156.654 207.003Z" fill="#CCE2F2"/>
<path d="M183.615 91.4766C182.352 92.0903 173.413 91.9569 166.964 90.559C166.58 92.1927 167.181 94.1574 166.491 95.678C171.832 98.6839 185.409 99.1454 186.707 98.5013C187.849 97.934 197.688 87.3941 199.623 85.6063C201.403 83.9615 203.695 76.0588 197.427 75.637C193.787 75.3925 186.899 89.8825 183.615 91.4766Z" fill="#F2B39E"/>
<path d="M126.199 90.4073C127.463 91.0209 135.996 89.6095 142.446 88.2121C142.829 89.8458 143.372 91.4394 144.062 92.96C138.721 95.9659 125.536 98.8361 124.238 98.1915C123.096 97.6243 112.061 87.3941 110.127 85.6062C108.347 83.9615 106.054 76.0588 112.322 75.637C115.962 75.3925 122.916 88.8132 126.199 90.4073Z" fill="#205B7F"/>
<path d="M116.886 74.3048C115.343 70.9307 114.915 67.5251 114.496 63.8891C111.075 63.8548 104.979 58.6382 105.959 61.5267C106.965 64.4897 106.349 70.5838 105.804 71.9961C104.547 75.2553 108.847 74.5242 110.152 74.3048C111.156 74.1362 116.518 73.4998 116.886 74.3048Z" fill="#F2B39E"/>
<path d="M108.068 65.3884C109.776 67.9537 112.603 69.93 115.598 69.7232C116.256 69.6778 116.938 69.5139 117.436 69.0641C117.83 68.7085 118.073 68.2084 118.287 67.7131C120.199 63.2802 120.513 58.125 119.153 53.4772C118.78 52.2025 118.242 50.9037 117.218 50.1016C116.468 49.5135 115.533 49.2531 114.621 49.0168C112.726 48.5259 110.733 48.0857 108.837 48.5786C101.658 50.4476 105.334 61.2837 108.068 65.3884Z" fill="#FFC8B1"/>
<path d="M116.024 58.2414C116.791 59.5746 117.862 61.8258 116.103 62.8704C115.843 63.0246 116.077 63.4425 116.338 63.2879C118.348 62.0935 117.332 59.5746 116.425 57.9974C116.273 57.7312 115.871 57.9737 116.024 58.2414Z" fill="#E29276"/>
<path d="M105.296 59.0504C105.296 59.0504 116.221 61.8491 119.987 59.9163C119.987 59.9163 120.688 65.8214 117.436 69.0637C117.436 69.0637 114.551 71.627 110.404 67.9354L104.983 63.3378L104.659 62.1714L111.013 67.8059C111.013 67.8059 112.355 63.4117 110.673 60.6561L104.964 59.7979L105.296 59.0504Z" fill="#BCD7EE"/>
<path d="M102.73 64.4902C103.172 64.8999 105.515 65.8093 107.835 65.2265C108.845 64.9729 109.534 64.0016 109.515 62.9217C109.467 60.2163 109.219 57.1325 108.483 54.7407L121.825 53.1399C121.811 49.4488 119.455 46.05 116.377 44.2105C113.3 42.3709 105.591 42.1912 101.608 46.0654C96.5867 50.9491 97.1379 59.2992 102.73 64.4902Z" fill="#E6133E"/>
<path d="M123.229 53.7879L118.084 55.2955L117.211 55.5516L115.886 55.943L113.042 56.7789L105.295 59.0499C102.079 56.8949 103.678 54.2856 103.678 54.2856L111.434 48.4873L114.181 46.4337L115.366 45.5495L116.235 44.8971L118.354 43.3123C121.825 47.9171 123.229 53.7879 123.229 53.7879Z" fill="#356FA1"/>
<path d="M115.886 55.943L113.042 56.7789C112.591 54.4644 111.89 50.8066 111.434 48.4873L114.181 46.4337L115.886 55.943Z" fill="#BCD7EE"/>
<path d="M118.084 55.2954L117.21 55.5515L115.365 45.5494L116.234 44.8971L118.084 55.2954Z" fill="#BCD7EE"/>
<path d="M114.238 59.0504C114.499 59.0504 114.711 58.6855 114.711 58.2353C114.711 57.7851 114.499 57.4202 114.238 57.4202C113.977 57.4202 113.765 57.7851 113.765 58.2353C113.765 58.6855 113.977 59.0504 114.238 59.0504Z" fill="#181A44"/>
<path d="M118.352 58.4463C118.613 58.4463 118.825 58.0814 118.825 57.6312C118.825 57.181 118.613 56.816 118.352 56.816C118.09 56.816 117.879 57.181 117.879 57.6312C117.879 58.0814 118.09 58.4463 118.352 58.4463Z" fill="#181A44"/>
<path d="M106.059 52.5079L108.073 58.2352L104.659 59.4331C104.659 59.4331 103.093 60.0274 102.241 58.1198C101.389 56.2121 102.318 55.165 102.706 54.8427C103.093 54.5209 106.059 52.5079 106.059 52.5079Z" fill="#181A44"/>
<path d="M104.659 57.8526C105.322 57.8526 105.86 57.2938 105.86 56.6045C105.86 55.9152 105.322 55.3564 104.659 55.3564C103.996 55.3564 103.459 55.9152 103.459 56.6045C103.459 57.2938 103.996 57.8526 104.659 57.8526Z" fill="#356FA1"/>
<path d="M104.659 57.1948C104.973 57.1948 105.227 56.9305 105.227 56.6044C105.227 56.2783 104.973 56.0139 104.659 56.0139C104.345 56.0139 104.091 56.2783 104.091 56.6044C104.091 56.9305 104.345 57.1948 104.659 57.1948Z" fill="#BCD7EE"/>
<path d="M114.69 63.6881C115.802 64.0133 116.938 63.976 118.026 63.5706C118.306 63.4663 118.185 62.9995 117.903 63.1049C116.887 63.4837 115.853 63.5257 114.813 63.2223C114.525 63.1382 114.402 63.604 114.69 63.6881Z" fill="#93B7D1"/>
<path d="M114.983 65.834C115.798 65.9127 116.6 65.8828 117.409 65.7581C117.704 65.7127 117.579 65.2469 117.285 65.2923C116.52 65.4107 115.753 65.4252 114.983 65.3512C114.685 65.3218 114.687 65.8054 114.983 65.834Z" fill="#93B7D1"/>
<path d="M115.619 67.3513C115.947 67.4247 116.276 67.4499 116.61 67.417C116.905 67.3875 116.908 66.9043 116.61 66.9338C116.317 66.9628 116.031 66.9502 115.743 66.8855C115.451 66.8198 115.326 67.2856 115.619 67.3513Z" fill="#93B7D1"/>
<path d="M102.227 199.918C102.056 200.711 101.919 202.129 102.447 202.727C102.914 203.256 113.512 202.899 117.927 202.783C118.44 201.903 117.829 199.714 116.997 199.157C116.165 198.6 112.306 198.744 111.34 198.522C109.953 198.204 109.602 197.888 108.399 197.103C108.363 195.561 108.552 192.485 108.515 190.942C107.533 190.872 103.833 190.555 103.52 190.94C104.019 193.192 102.71 197.675 102.227 199.918Z" fill="#25618E"/>
<path d="M122.907 199.918C122.736 200.711 122.599 202.129 123.127 202.727C123.594 203.256 134.192 202.899 138.608 202.782C139.121 201.903 138.509 199.714 137.677 199.157C136.845 198.6 132.986 198.744 132.02 198.522C130.633 198.204 130.283 197.888 129.08 197.103C129.044 195.561 128.249 192.414 128.213 190.872C127.23 190.801 123.539 190.368 123.226 190.753C123.725 193.005 123.39 197.675 122.907 199.918Z" fill="#25618E"/>
<path d="M129.894 196.385C127.205 196.24 125.379 196.524 122.69 196.379C122.115 184.478 119.431 179.259 118.429 160.018C117.93 150.446 107.538 125.043 106.966 115.475C110.894 115.789 114.971 115.806 118.863 116.426C122.346 116.981 122.7 118.316 123.227 121.99C124.315 129.575 127.597 151.99 127.686 159.656C127.733 163.675 129.697 196.374 129.894 196.385Z" fill="#181A44"/>
<path d="M105.146 159.294C104.751 162.135 103.319 181.533 102.074 196.422C105.33 196.439 105.957 196.405 109.213 196.422C111.536 185.386 114.918 163.066 115.229 159.052C115.789 151.826 116.512 138.525 117.229 132.959C118.297 124.675 118.954 118.464 118.954 114.107C112.565 116.216 108.041 116.279 101.671 114.107C102.645 114.443 100.365 119.363 100.371 124.752C100.381 133.72 105.706 155.267 105.146 159.294Z" fill="#262761"/>
<path d="M121.488 91.2932C121.534 89.0125 120.859 83.1363 120.05 81.0161C119.464 79.48 118.297 76.2378 117.297 74.8955C116.241 73.4778 115.791 72.8105 114.184 72.306C111.269 71.3918 107.939 71.4411 105.407 72.2461C105.626 72.1577 100.823 74.7597 99.7973 77.8265C98.7563 80.9412 98.7582 84.3134 98.7851 87.6102C98.8878 100.166 99.0528 114.728 100.37 124.752C108.564 122.034 114.666 121.123 123.226 121.989C121.826 108.331 121.237 103.745 121.488 91.2932Z" fill="#356FA1"/>
<path d="M105.407 72.2465L105.576 69.7378C105.576 69.7378 115.689 70.968 116.759 71.4923C117.711 71.959 117.297 74.8954 117.297 74.8954C117.297 74.8954 115.415 74.7224 112.354 74.0436C109.294 73.3647 105.831 73.083 105.407 72.2465Z" fill="#181A44"/>
<path d="M148.018 98.1917C144.121 97.9259 141.155 97.9433 137.259 97.6776C136.813 97.6471 136.34 97.623 135.949 97.8481C135.012 98.3883 135.285 100.01 136.183 100.619C137.081 101.227 139.402 101.63 139.402 101.63C143.407 102.064 151.637 100.333 151.637 98.7551C151.33 97.9095 148.885 98.2511 148.018 98.1917Z" fill="#181A44"/>
<path d="M119.153 101.359C119.663 101.839 134.616 102.873 140.445 102.68C140.094 101.135 139.742 99.1208 139.39 97.576C133.889 96.226 127.327 95.0909 121.826 93.7404C119.136 89.2322 107.533 69.7604 101.308 77.391C96.7284 83.0033 115.305 97.7471 119.153 101.359Z" fill="#25618E"/>
<path d="M171.473 93.74H136.153V98.2671H171.473V93.74Z" fill="#DBA216"/>
<path d="M136.966 96.4869C148.197 96.4869 159.428 96.4869 170.659 96.4869C171.257 96.4869 171.258 95.5205 170.659 95.5205C159.428 95.5205 148.197 95.5205 136.966 95.5205C136.368 95.5205 136.367 96.4869 136.966 96.4869Z" fill="#F8BB13"/>
<path d="M169.896 89.2129H134.576V93.7399H169.896V89.2129Z" fill="#F8BB13"/>
<path d="M135.39 91.8879C146.621 91.8879 157.852 91.8879 169.083 91.8879C169.681 91.8879 169.682 90.9215 169.083 90.9215C157.852 90.9215 146.621 90.9215 135.39 90.9215C134.792 90.9215 134.791 91.8879 135.39 91.8879Z" fill="#DBA216"/>
<path d="M171.473 84.6858H136.153V89.2128H171.473V84.6858Z" fill="#DBA216"/>
<path d="M136.966 87.6778C148.197 87.6778 159.428 87.6778 170.659 87.6778C171.257 87.6778 171.258 86.7114 170.659 86.7114C159.428 86.7114 148.197 86.7114 136.966 86.7114C136.368 86.7114 136.367 87.6778 136.966 87.6778Z" fill="#F8BB13"/>
<path d="M144.063 80.8772C144.063 80.8772 139.42 75.9385 141.744 72.3165C144.067 68.6944 140.998 63.0792 140.998 63.0792C140.998 63.0792 146.275 67.6469 144.063 72.3165C141.923 76.8343 144.063 80.8772 144.063 80.8772Z" fill="#FFDF8F"/>
<path d="M152.952 80.8772C152.952 80.8772 148.309 75.9385 150.633 72.3165C152.956 68.6944 149.887 63.0792 149.887 63.0792C149.887 63.0792 155.164 67.6469 152.952 72.3165C150.812 76.8343 152.952 80.8772 152.952 80.8772Z" fill="#FFDF8F"/>
<path d="M161.84 80.8772C161.84 80.8772 157.197 75.9385 159.521 72.3165C161.845 68.6944 158.775 63.0792 158.775 63.0792C158.775 63.0792 164.052 67.6469 161.84 72.3165C159.7 76.8343 161.84 80.8772 161.84 80.8772Z" fill="#FFDF8F"/>
<path d="M197.856 199.918C198.026 200.71 198.164 201.646 197.636 202.244C197.169 202.773 188.601 202.615 185.052 202.533C184.539 201.654 185.089 200.454 185.921 199.898C186.753 199.341 191.463 198.12 192.666 197.335C192.702 195.793 189.42 185.64 189.455 184.097C190.438 184.027 195.783 183.712 196.096 184.097C195.598 186.348 197.373 197.675 197.856 199.918Z" fill="#F2B39E"/>
<path d="M188.198 198.674C188.198 198.674 187.978 201.07 189.185 201.775C189.61 202.022 198.364 201.775 198.364 201.775C198.364 201.775 198.983 203.305 198.458 203.426C196.138 203.96 183.298 203.426 183.298 203.426C183.298 203.426 181.391 203.268 182.112 201.817C182.834 200.365 186.804 199.157 188.198 198.674Z" fill="#E6133E"/>
<path d="M209.009 199.918C209.18 200.71 209.317 201.646 208.789 202.244C208.322 202.773 199.754 202.615 196.205 202.533C195.692 201.654 196.242 200.454 197.074 199.898C197.906 199.341 202.616 198.12 203.819 197.335C203.855 195.793 200.573 185.64 200.609 184.097C201.592 184.027 206.937 183.712 207.25 184.097C206.752 186.348 208.526 197.675 209.009 199.918Z" fill="#FFC8B1"/>
<path d="M189.254 187.848C191.942 187.702 194.049 187.993 196.737 187.848C196.218 177.047 196.007 165.023 194.413 158.579C191.658 147.44 204.649 123.161 205.109 115.474C201.181 115.788 197.104 115.806 193.211 116.426C189.728 116.98 188.047 116.615 187.52 120.289C186.431 127.874 185.057 145.99 184.968 153.656C184.921 157.675 188.559 180.645 189.254 187.848Z" fill="#181A44"/>
<path d="M203.863 156.394C206.186 172.017 206.233 172.705 207.478 187.594C204.222 187.611 203.449 187.83 200.193 187.848C198.009 177.627 191.431 158.103 191.431 150.297C191.431 143.048 191.606 131.087 192.102 125.224C192.808 116.898 192.089 117.102 192.089 112.746C198.479 114.855 201.709 116.279 208.08 114.107C207.676 117.095 210.339 116.275 210.332 121.664C210.322 130.632 202.336 146.128 203.863 156.394Z" fill="#262761"/>
<path d="M199.352 198.674C199.352 198.674 199.132 201.07 200.339 201.774C200.764 202.022 209.518 201.774 209.518 201.774C209.518 201.774 210.137 203.305 209.612 203.426C207.292 203.96 193.949 203.663 193.949 203.663C193.949 203.663 192.545 203.268 193.266 201.817C193.988 200.365 197.958 199.157 199.352 198.674Z" fill="#ED4870"/>
<path d="M186.523 90.6797C184.155 86.345 190.004 83.0974 190.507 80.8772C192.402 72.5174 193.959 72.8102 195.566 72.3058C198.48 71.3916 201.81 71.4409 204.343 72.2459C204.124 72.1574 208.927 74.7594 209.952 77.8263C210.993 80.9409 209.844 85.4757 209.162 88.6962C207.89 94.7062 207.544 98.2669 207.27 104.531C206.93 112.346 210.332 114.839 210.213 122.261C198.739 123.727 191.86 123.058 187.519 120.288C188.919 106.63 192.44 101.509 186.523 90.6797Z" fill="#93C2EF"/>
<path d="M190.597 101.359C190.086 101.839 176.176 101.823 170.347 101.629C170.699 100.085 170.007 99.1202 170.359 97.5754C175.86 96.2254 182.422 95.0903 187.923 93.7398C190.613 89.2316 202.216 69.7598 208.441 77.3904C213.02 83.0032 194.444 97.747 190.597 101.359Z" fill="#FFC8B1"/>
<path d="M174.843 96.5553C174.452 96.3306 170.805 97.5449 170.359 97.5753C166.463 97.8411 164.276 98.0015 160.38 98.2668C159.513 98.3257 158.176 98.7543 158.58 99.5695C159.636 101.147 166.342 102.064 170.347 101.629L174.384 101.756C175.283 101.147 175.78 97.0955 174.843 96.5553Z" fill="#ACCDE5"/>
<path d="M169.922 98.1475L169.817 97.9899C169.025 97.7049 168.416 97.0569 167.756 96.5201C167.096 95.9832 166.266 95.5261 165.451 95.7262C165.351 96.3297 165.77 96.8883 166.209 97.2966C166.647 97.7053 167.158 98.0924 167.343 98.6737C167.407 98.8732 167.429 99.0912 167.538 99.269C167.764 99.6415 168.258 99.6932 168.682 99.7063C169.181 99.7212 169.732 99.7174 170.103 99.3733C170.476 99.0283 170.415 98.2224 169.922 98.1475Z" fill="#ACCDE5"/>
<path d="M212.98 51.0264C214.317 52.5016 214.775 54.5997 215.07 56.6035C215.366 58.6073 215.573 60.6947 216.559 62.4434C217.546 64.192 219.588 65.4986 221.439 64.8608C220.14 66.9472 217.535 68.0537 215.203 67.5087C212.871 66.9641 210.972 64.8057 210.656 62.3424C210.429 60.5681 210.483 58.4889 209.4 57.0973C208.493 55.9308 207.192 55.7163 206.354 54.4943C205.382 53.0757 205.325 49.947 207.08 49.283C208.853 48.6129 211.76 49.6822 212.98 51.0264Z" fill="#D1113F"/>
<path d="M194.767 73.9077C196.309 70.5335 194.834 67.5256 195.254 63.8896C198.674 63.8553 204.77 58.6387 203.79 61.5272C202.785 64.4902 202.587 71.4308 203.945 71.9966C207.425 73.4462 197.784 78.0781 196.741 78.9223C188.541 85.5599 195.135 73.1027 194.767 73.9077Z" fill="#F2B39E"/>
<path d="M201.682 65.3884C199.973 67.9537 197.146 69.93 194.152 69.7232C193.494 69.6778 192.812 69.5139 192.314 69.0641C191.92 68.7085 191.676 68.2084 191.463 67.7131C189.551 63.2802 189.418 57.8791 190.347 52.8698C190.59 51.5613 191.509 50.9032 192.532 50.1016C193.282 49.5135 194.217 49.2531 195.129 49.0168C197.025 48.5259 199.017 48.0857 200.913 48.5786C208.092 50.4476 204.415 61.2837 201.682 65.3884Z" fill="#FFC8B1"/>
<path d="M192.495 51.1129C192.493 52.3035 192.584 53.1138 193.046 54.2029C194.171 54.1614 195.373 54.1735 196.49 54.3083C196.247 53.1549 196.353 52.3552 196.655 51.2173C196.781 52.5195 197.157 53.1409 197.704 54.3194C198.669 54.4561 200.454 54.7673 200.454 54.7673C200.919 56.1874 201.169 57.5858 201.542 58.3623C202.352 60.0438 203.068 61.6456 203.321 63.5073C206.243 61.9717 207.719 58.9513 208.307 55.6037C208.764 53.0056 208.548 50.0682 206.837 48.1156C204.984 45.9997 201.801 45.1358 198.362 45.1773C193.439 45.2372 191.565 48.0736 191.565 48.0736C189.762 48.1988 188.835 49.8228 188.79 51.2236C188.724 53.2878 190.442 54.0319 192.059 54.1585C191.987 52.9582 192.06 51.8227 192.495 51.1129Z" fill="#E6133E"/>
<path d="M192.914 57.6776C192.614 59.5118 191.355 62.0457 193.411 63.288C193.67 63.4445 193.904 63.027 193.646 62.8705C191.85 61.7852 193.105 59.3803 193.363 57.8061C193.412 57.5022 192.964 57.3712 192.914 57.6776Z" fill="#E29276"/>
<path d="M203.397 57.42C203.397 57.42 195.078 62.0104 189.709 59.5688C189.709 59.5688 189.06 65.8213 192.313 69.0636C192.313 69.0636 194.99 71.6206 199.137 67.929L203.062 62.5279L203.462 61.2585L198.866 67.2042C198.866 67.2042 196.67 63.3546 198.352 60.599L203.885 57.7056L203.397 57.42Z" fill="#BCD7EE"/>
<path d="M195.51 59.0503C195.772 59.0503 195.984 58.6854 195.984 58.2352C195.984 57.785 195.772 57.42 195.51 57.42C195.249 57.42 195.037 57.785 195.037 58.2352C195.037 58.6854 195.249 59.0503 195.51 59.0503Z" fill="#181A44"/>
<path d="M191.397 58.5571C191.659 58.5571 191.871 58.1921 191.871 57.7419C191.871 57.2917 191.659 56.9268 191.397 56.9268C191.136 56.9268 190.924 57.2917 190.924 57.7419C190.924 58.1921 191.136 58.5571 191.397 58.5571Z" fill="#181A44"/>
<path d="M194.935 63.2223C193.896 63.5262 192.862 63.4832 191.846 63.1049C191.564 62.9995 191.443 63.4663 191.723 63.5707C192.811 63.9765 193.947 64.0133 195.059 63.6881C195.347 63.6045 195.224 63.1377 194.935 63.2223Z" fill="#93B7D1"/>
<path d="M194.766 65.3507C193.996 65.4251 193.23 65.4101 192.464 65.2917C192.172 65.2468 192.045 65.7121 192.34 65.7576C193.149 65.8822 193.952 65.9122 194.766 65.8334C195.061 65.8054 195.064 65.3217 194.766 65.3507Z" fill="#93B7D1"/>
<path d="M194.006 66.8854C193.717 66.9501 193.432 66.9627 193.138 66.9337C192.841 66.9042 192.843 67.3874 193.138 67.4169C193.473 67.4502 193.801 67.4251 194.129 67.3512C194.422 67.2854 194.298 66.8196 194.006 66.8854Z" fill="#93B7D1"/>
<path d="M203.886 57.7061C203.76 57.2147 203.435 56.6943 202.946 56.6793C200.454 56.6044 201.401 60.4018 201.401 60.4018C201.317 61.0904 201.973 62.7584 202.778 62.2114C203.933 61.4281 204.242 59.0909 203.886 57.7061Z" fill="#FFC8B1"/>
<path d="M195.079 55.4283C195.572 55.4018 196.003 55.3414 196.439 55.6525C196.631 55.7893 197.079 56.3116 197.272 55.856C197.318 55.7477 197.348 55.6076 197.272 55.5013C196.78 54.8127 195.69 54.4938 194.935 54.8794C194.684 55.008 194.804 55.4433 195.079 55.4283Z" fill="#E6133E"/>
<path d="M190.641 55.3738C190.874 55.2496 191.073 55.1283 191.346 55.1491C191.589 55.1679 191.82 55.3491 192.06 55.3269C192.26 55.3086 192.361 55.1544 192.333 54.9544C192.271 54.506 191.666 54.3658 191.305 54.3886C190.91 54.4137 190.456 54.6094 190.276 54.9945C190.16 55.2443 190.396 55.5043 190.641 55.3738Z" fill="#E6133E"/>
<path d="M202.267 58.2941C202.561 58.009 202.637 58.2328 202.722 58.558C202.797 58.8455 202.814 59.1595 202.82 59.4552C202.827 59.8027 202.812 60.1651 202.714 60.4989C202.636 60.7599 202.412 60.9817 202.435 61.258C202.441 61.3402 202.495 61.404 202.578 61.4069C203.499 61.4368 203.313 59.2847 203.215 58.7334C203.103 58.1076 202.487 57.0987 201.991 58.0723C201.897 58.256 202.119 58.4376 202.267 58.2941Z" fill="#E29276"/>
</svg>
